<svg width="69" height="69" viewBox="0 0 69 69" fill="none" xmlns="http://www.w3.org/2000/svg">
<path d="M37.7186 0.223633C41.5434 0.233833 43.4847 0.254232 45.1609 0.301831L45.8204 0.32563C46.582 0.35283 47.3333 0.386829 48.2411 0.427628C51.8585 0.597624 54.3268 1.16881 56.4925 2.00859C58.7364 2.87217 60.6267 4.04174 62.517 5.92869C64.2465 7.62774 65.5843 9.68381 66.437 11.9533C67.2767 14.1191 67.8479 16.5874 68.0179 20.2083C68.0587 21.1127 68.0927 21.8641 68.1199 22.6291L68.1403 23.2887C68.1913 24.9614 68.2117 26.9028 68.2185 30.7277L68.2219 33.264V37.7179C68.2302 40.1978 68.2041 42.6777 68.1437 45.1569L68.1233 45.8165C68.0961 46.5815 68.0621 47.3329 68.0213 48.2373C67.8513 51.8582 67.2733 54.3231 66.437 56.4923C65.5843 58.7618 64.2465 60.8179 62.517 62.5169C60.818 64.2464 58.762 65.5843 56.4925 66.437C54.3268 67.2768 51.8585 67.848 48.2411 68.018L45.8204 68.12L45.1609 68.1404C43.4847 68.188 41.5434 68.2118 37.7186 68.2186L35.1824 68.222H30.732C28.251 68.2307 25.77 68.2047 23.2898 68.1438L22.6302 68.1234C21.8231 68.0928 21.0162 68.0577 20.2095 68.018C16.5921 67.848 14.1238 67.2768 11.9547 66.437C9.68647 65.5838 7.63165 64.246 5.93363 62.5169C4.20294 60.8182 2.86396 58.7621 2.01023 56.4923C1.17048 54.3265 0.599303 51.8582 0.429312 48.2373L0.327317 45.8165L0.310319 45.1569C0.247646 42.6778 0.219311 40.1979 0.225322 37.7179V30.7277C0.215912 28.2478 0.240847 25.7679 0.300119 23.2887L0.323918 22.6291C0.351116 21.8641 0.385114 21.1127 0.425912 20.2083C0.595904 16.5874 1.16707 14.1225 2.00683 11.9533C2.86255 9.68288 4.20388 7.62674 5.93703 5.92869C7.63407 4.2 9.68768 2.86222 11.9547 2.00859C14.1238 1.16881 16.5887 0.597624 20.2095 0.427628C21.1139 0.386829 21.8686 0.35283 22.6302 0.32563L23.2898 0.305231C25.7689 0.244824 28.2487 0.218755 30.7286 0.227032L37.7186 0.223633ZM34.2236 17.2232C29.7152 17.2232 25.3914 19.0142 22.2034 22.2023C19.0154 25.3903 17.2245 29.7142 17.2245 34.2228C17.2245 38.7314 19.0154 43.0553 22.2034 46.2433C25.3914 49.4314 29.7152 51.2224 34.2236 51.2224C38.7321 51.2224 43.0559 49.4314 46.2438 46.2433C49.4318 43.0553 51.2227 38.7314 51.2227 34.2228C51.2227 29.7142 49.4318 25.3903 46.2438 22.2023C43.0559 19.0142 38.7321 17.2232 34.2236 17.2232ZM34.2236 24.0231C35.563 24.0228 36.8894 24.2864 38.1269 24.7988C39.3645 25.3112 40.489 26.0623 41.4362 27.0093C42.3835 27.9563 43.135 29.0806 43.6478 30.318C44.1605 31.5554 44.4246 32.8817 44.4248 34.2211C44.425 35.5606 44.1614 36.8869 43.6491 38.1245C43.1367 39.3621 42.3856 40.4866 41.4386 41.4339C40.4917 42.3812 39.3674 43.1327 38.1301 43.6455C36.8927 44.1583 35.5664 44.4223 34.227 44.4226C31.5219 44.4226 28.9277 43.3479 27.0149 41.4351C25.1021 39.5223 24.0275 36.928 24.0275 34.2228C24.0275 31.5177 25.1021 28.9233 27.0149 27.0105C28.9277 25.0977 31.5219 24.0231 34.227 24.0231M52.0761 12.1233C50.949 12.1233 49.868 12.5711 49.0711 13.3681C48.2741 14.1651 47.8263 15.2461 47.8263 16.3732C47.8263 17.5004 48.2741 18.5814 49.0711 19.3784C49.868 20.1754 50.949 20.6231 52.0761 20.6231C53.2032 20.6231 54.2842 20.1754 55.0812 19.3784C55.8781 18.5814 56.3259 17.5004 56.3259 16.3732C56.3259 15.2461 55.8781 14.1651 55.0812 13.3681C54.2842 12.5711 53.2032 12.1233 52.0761 12.1233Z" fill="black"/>
</svg>
