<svg width="68" height="68" viewBox="0 0 68 68" fill="none" xmlns="http://www.w3.org/2000/svg">
<path fill-rule="evenodd" clip-rule="evenodd" d="M34 0C15.2218 0 0 15.2218 0 34C0 40.426 1.785 46.444 4.8892 51.5712L1.8564 61.88C1.68227 62.4719 1.67081 63.0997 1.82323 63.6976C1.97565 64.2954 2.28632 64.8411 2.72258 65.2774C3.15884 65.7137 3.70458 66.0243 4.30242 66.1767C4.90026 66.3292 5.52812 66.3177 6.12 66.1436L16.4288 63.1108C21.7285 66.3168 27.806 68.0079 34 68C52.7782 68 68 52.7782 68 34C68 15.2218 52.7782 0 34 0ZM26.3092 41.6942C33.1874 48.569 39.7528 49.4768 42.0716 49.5618C45.5974 49.691 49.0314 46.9982 50.3676 43.8736C50.5349 43.4846 50.5953 43.058 50.5427 42.6378C50.4901 42.2177 50.3264 41.8192 50.0684 41.4834C48.2052 39.1034 45.6858 37.3932 43.2242 35.6932C42.7105 35.337 42.0787 35.1939 41.4617 35.2941C40.8447 35.3943 40.2906 35.7299 39.916 36.2304L37.876 39.3414C37.7682 39.508 37.6011 39.6274 37.4085 39.6754C37.216 39.7234 37.0124 39.6963 36.839 39.5998C35.4552 38.8076 33.439 37.4612 31.9906 36.0128C30.5422 34.5644 29.2774 32.64 28.5668 31.3446C28.4808 31.1795 28.4565 30.9892 28.4983 30.8079C28.5401 30.6265 28.6451 30.466 28.7946 30.3552L31.9362 28.0228C32.3858 27.6338 32.6761 27.0926 32.7514 26.5028C32.8267 25.9131 32.6817 25.3163 32.3442 24.8268C30.821 22.5964 29.0462 19.7608 26.4724 17.8806C26.1395 17.6414 25.7505 17.4923 25.3431 17.4476C24.9357 17.4029 24.5236 17.4642 24.1468 17.6256C21.0188 18.9652 18.3124 22.3992 18.4416 25.9318C18.5266 28.2506 19.4344 34.816 26.3092 41.6942Z" fill="black"/>
</svg>
